<svg width="800" height="400" viewBox="0 0 800 400" xmlns="http://www.w3.org/2000/svg"><mask id="satori_om-id"><rect x="0" y="0" width="800" height="400" fill="#fff"/></mask><rect x="0" y="0" width="800" height="400" fill="#fff"/><clipPath id="satori_cp-id-0"><rect x="363" y="128" width="75" height="65"/></clipPath><mask id="satori_om-id-0"><rect x="363" y="128" width="75" height="65" fill="#fff"/></mask><image x="363" y="128" width="75" height="65" href="data:image/svg+xml;utf8,%3Csvg  fill=%22%23000%22 xmlns=%22http://www.w3.org/2000/svg%22 width=%22NaN%22 height=%22null%22 viewBox=%220 0 75 65%22%3E%3Cpath d=%22M37.59.25l36.95 64H.64l36.95-64z%22%3E%3C/path%3E%3C/svg%3E" preserveAspectRatio="none" clip-path="url(#satori_cp-id-0)" mask="url(#satori_om-id-0)"/><mask id="satori_om-id-0-0"><rect x="363" y="128" width="0" height="65" fill="#fff"/></mask><mask id="satori_om-id-1"><rect x="274" y="233" width="252" height="39" fill="#fff"/></mask><path fill="black" d="M286.0 263.0L276.0 263.0L276.0 239.7L285.3 239.7Q287.9 239.7 289.6 240.4Q291.3 241.2 292.2 242.5Q293.1 243.9 293.1 245.6L293.1 245.6Q293.1 247.0 292.5 248.0Q292.0 249.1 291.0 249.7Q290.1 250.4 288.9 250.6L288.9 250.6L288.9 250.9Q290.2 250.9 291.4 251.6Q292.5 252.3 293.3 253.6Q294.0 254.8 294.0 256.5L294.0 256.5Q294.0 258.4 293.1 259.8Q292.1 261.3 290.4 262.1Q288.6 263.0 286.0 263.0L286.0 263.0ZM280.9 252.7L280.9 258.9L285.0 258.9Q287.0 258.9 288.0 258.1Q288.9 257.3 288.9 256.0L288.9 256.0Q288.9 255.1 288.4 254.3Q288.0 253.6 287.1 253.2Q286.3 252.7 285.1 252.7L285.1 252.7L280.9 252.7ZM280.9 243.7L280.9 249.4L284.6 249.4Q285.6 249.4 286.4 249.1Q287.2 248.7 287.6 248.0Q288.1 247.4 288.1 246.5L288.1 246.5Q288.1 245.2 287.2 244.4Q286.3 243.7 284.7 243.7L284.7 243.7L280.9 243.7ZM302.1 263.3L302.1 263.3Q300.4 263.3 299.1 262.7Q297.8 262.1 297.0 261.0Q296.3 259.8 296.3 258.1L296.3 258.1Q296.3 256.6 296.8 255.6Q297.3 254.6 298.3 254.0Q299.2 253.4 300.3 253.1Q301.5 252.8 302.8 252.7L302.8 252.7Q304.3 252.5 305.3 252.4Q306.2 252.3 306.6 252.0Q307.0 251.7 307.0 251.1L307.0 251.1L307.0 251.1Q307.0 250.0 306.4 249.4Q305.7 248.8 304.5 248.8L304.5 248.8Q303.1 248.8 302.4 249.4Q301.6 250.0 301.4 250.8L301.4 250.8L296.9 250.5Q297.2 248.9 298.2 247.7Q299.2 246.5 300.8 245.9Q302.4 245.3 304.5 245.3L304.5 245.3Q305.9 245.3 307.3 245.6Q308.6 246.0 309.6 246.7Q310.7 247.4 311.3 248.5Q311.9 249.6 311.9 251.2L311.9 251.2L311.9 263.0L307.3 263.0L307.3 260.5L307.2 260.5Q306.7 261.3 306.0 262.0Q305.3 262.6 304.3 262.9Q303.4 263.3 302.1 263.3ZM303.4 259.9L303.4 259.9Q304.5 259.9 305.3 259.5Q306.1 259.1 306.6 258.4Q307.1 257.6 307.1 256.7L307.1 256.7L307.1 254.9Q306.9 255.0 306.5 255.1Q306.1 255.2 305.6 255.3Q305.1 255.4 304.6 255.5Q304.1 255.6 303.7 255.6L303.7 255.6Q302.9 255.8 302.2 256.0Q301.6 256.3 301.2 256.8Q300.9 257.2 300.9 257.9L300.9 257.9Q300.9 258.9 301.6 259.4Q302.3 259.9 303.4 259.9ZM330.2 250.5L330.2 250.5L325.7 250.7Q325.6 250.2 325.3 249.7Q324.9 249.3 324.3 249.0Q323.7 248.7 322.8 248.7L322.8 248.7Q321.7 248.7 320.9 249.2Q320.1 249.6 320.1 250.4L320.1 250.4Q320.1 251.1 320.6 251.5Q321.1 251.9 322.4 252.2L322.4 252.2L325.5 252.8Q328.1 253.3 329.3 254.5Q330.6 255.7 330.6 257.5L330.6 257.5Q330.6 259.3 329.6 260.6Q328.6 261.8 326.8 262.6Q325.1 263.3 322.8 263.3L322.8 263.3Q319.3 263.3 317.3 261.8Q315.2 260.4 314.9 257.9L314.9 257.9L319.6 257.6Q319.9 258.7 320.7 259.3Q321.5 259.8 322.8 259.8L322.8 259.8Q324.1 259.8 324.9 259.3Q325.6 258.8 325.6 258.0L325.6 258.0Q325.6 257.4 325.1 256.9Q324.5 256.5 323.4 256.3L323.4 256.3L320.4 255.7Q317.8 255.2 316.6 253.9Q315.3 252.7 315.3 250.7L315.3 250.7Q315.3 249.0 316.3 247.8Q317.2 246.6 318.8 245.9Q320.5 245.3 322.7 245.3L322.7 245.3Q326.0 245.3 327.9 246.7Q329.9 248.1 330.2 250.5ZM341.6 263.3L341.6 263.3Q338.9 263.3 336.9 262.2Q335.0 261.1 334.0 259.1Q332.9 257.1 332.9 254.3L332.9 254.3Q332.9 251.6 334.0 249.6Q335.0 247.5 336.9 246.4Q338.8 245.3 341.4 245.3L341.4 245.3Q343.1 245.3 344.6 245.8Q346.1 246.4 347.2 247.5Q348.3 248.6 349.0 250.2Q349.6 251.9 349.6 254.1L349.6 254.1L349.6 255.5L334.9 255.5L334.9 252.5L345.0 252.5Q345.0 251.4 344.6 250.6Q344.1 249.8 343.3 249.3Q342.5 248.9 341.5 248.9L341.5 248.9Q340.4 248.9 339.5 249.4Q338.7 249.9 338.2 250.7Q337.7 251.6 337.7 252.6L337.7 252.6L337.7 255.5Q337.7 256.8 338.2 257.7Q338.7 258.7 339.6 259.2Q340.4 259.7 341.7 259.7L341.7 259.7Q342.5 259.7 343.1 259.5Q343.8 259.2 344.3 258.8Q344.8 258.3 345.0 257.7L345.0 257.7L349.5 258.0Q349.1 259.6 348.1 260.8Q347.0 262.0 345.4 262.6Q343.7 263.3 341.6 263.3Z M370.1 245.0L364.3 263.0L359 263.0L367.0 239.7L373.4 239.7L381.4 263.0L376.1 263.0L370.3 245.0L370.1 245.0ZM363.9 257.6L363.9 253.8L376.4 253.8L376.4 257.6L363.9 257.6ZM388.9 269.5L384.1 269.5L384.1 245.5L388.9 245.5L388.9 248.4L389.1 248.4Q389.4 247.7 390.0 247.0Q390.6 246.3 391.6 245.8Q392.6 245.3 394.1 245.3L394.1 245.3Q396.0 245.3 397.6 246.3Q399.2 247.3 400.2 249.3Q401.1 251.2 401.1 254.2L401.1 254.2Q401.1 257.2 400.2 259.2Q399.3 261.2 397.6 262.2Q396.0 263.2 394.0 263.2L394.0 263.2Q392.6 263.2 391.7 262.8Q390.7 262.3 390.0 261.6Q389.4 260.9 389.1 260.2L389.1 260.2L388.9 260.2L388.9 269.5ZM388.8 254.2L388.8 254.2Q388.8 255.8 389.3 256.9Q389.7 258.1 390.5 258.7Q391.3 259.4 392.5 259.4L392.5 259.4Q393.7 259.4 394.5 258.7Q395.3 258.1 395.8 256.9Q396.2 255.7 396.2 254.2L396.2 254.2Q396.2 252.7 395.8 251.6Q395.3 250.4 394.5 249.8Q393.7 249.1 392.5 249.1L392.5 249.1Q391.3 249.1 390.5 249.7Q389.7 250.4 389.3 251.5Q388.8 252.7 388.8 254.2ZM409.2 269.5L404.3 269.5L404.3 245.5L409.1 245.5L409.1 248.4L409.3 248.4Q409.6 247.7 410.3 247.0Q410.9 246.3 411.8 245.8Q412.8 245.3 414.3 245.3L414.3 245.3Q416.2 245.3 417.8 246.3Q419.4 247.3 420.4 249.3Q421.4 251.2 421.4 254.2L421.4 254.2Q421.4 257.2 420.4 259.2Q419.5 261.2 417.9 262.2Q416.3 263.2 414.3 263.2L414.3 263.2Q412.9 263.2 411.9 262.8Q410.9 262.3 410.3 261.6Q409.7 260.9 409.3 260.2L409.3 260.2L409.2 260.2L409.2 269.5ZM409.1 254.2L409.1 254.2Q409.1 255.8 409.5 256.9Q409.9 258.1 410.8 258.7Q411.6 259.4 412.8 259.4L412.8 259.4Q413.9 259.4 414.8 258.7Q415.6 258.1 416.0 256.9Q416.4 255.7 416.4 254.2L416.4 254.2Q416.4 252.7 416 251.6Q415.6 250.4 414.8 249.8Q413.9 249.1 412.8 249.1L412.8 249.1Q411.6 249.1 410.8 249.7Q409.9 250.4 409.5 251.5Q409.1 252.7 409.1 254.2Z M432.1 239.7L437.0 239.7L437.0 263.0L432.1 263.0L432.1 239.7ZM445.8 263.0L441.0 263.0L441.0 245.5L445.6 245.5L445.6 248.6L445.8 248.6Q446.3 247.0 447.6 246.2Q448.9 245.3 450.7 245.3L450.7 245.3Q452.5 245.3 453.7 246.2Q455.0 247.1 455.4 248.6L455.4 248.6L455.6 248.6Q456.1 247.1 457.5 246.2Q458.9 245.3 460.8 245.3L460.8 245.3Q463.3 245.3 464.8 246.8Q466.3 248.4 466.3 251.2L466.3 251.2L466.3 263.0L461.5 263.0L461.5 252.2Q461.5 250.7 460.7 250.0Q460.0 249.3 458.8 249.3L458.8 249.3Q457.5 249.3 456.8 250.1Q456.0 250.9 456.0 252.3L456.0 252.3L456.0 263.0L451.3 263.0L451.3 252.1Q451.3 250.8 450.6 250.0Q449.9 249.3 448.7 249.3L448.7 249.3Q447.9 249.3 447.2 249.7Q446.6 250.1 446.2 250.8Q445.8 251.5 445.8 252.5L445.8 252.5L445.8 263.0ZM475.1 263.3L475.1 263.3Q473.5 263.3 472.2 262.7Q470.9 262.1 470.1 261.0Q469.3 259.8 469.3 258.1L469.3 258.1Q469.3 256.6 469.9 255.6Q470.4 254.6 471.3 254.0Q472.3 253.4 473.4 253.1Q474.6 252.8 475.9 252.7L475.9 252.7Q477.4 252.5 478.4 252.4Q479.3 252.3 479.7 252.0Q480.1 251.7 480.1 251.1L480.1 251.1L480.1 251.1Q480.1 250.0 479.4 249.4Q478.8 248.8 477.5 248.8L477.5 248.8Q476.2 248.8 475.5 249.4Q474.7 250.0 474.4 250.8L474.4 250.8L470.0 250.5Q470.3 248.9 471.3 247.7Q472.3 246.5 473.9 245.9Q475.5 245.3 477.6 245.3L477.6 245.3Q479.0 245.3 480.3 245.6Q481.7 246.0 482.7 246.7Q483.8 247.4 484.4 248.5Q485.0 249.6 485.0 251.2L485.0 251.2L485.0 263.0L480.4 263.0L480.4 260.5L480.2 260.5Q479.8 261.3 479.1 262.0Q478.4 262.6 477.4 262.9Q476.4 263.3 475.1 263.3ZM476.5 259.9L476.5 259.9Q477.6 259.9 478.4 259.5Q479.2 259.1 479.7 258.4Q480.2 257.6 480.2 256.7L480.2 256.7L480.2 254.9Q479.9 255.0 479.5 255.1Q479.1 255.2 478.7 255.3Q478.2 255.4 477.7 255.5Q477.2 255.6 476.8 255.6L476.8 255.6Q475.9 255.8 475.3 256.0Q474.7 256.3 474.3 256.8Q474.0 257.2 474.0 257.9L474.0 257.9Q474.0 258.9 474.7 259.4Q475.4 259.9 476.5 259.9ZM496.6 269.9L496.6 269.9Q494.2 269.9 492.6 269.2Q490.9 268.6 489.9 267.5Q488.9 266.4 488.6 265.0L488.6 265.0L493.1 264.4Q493.3 264.9 493.7 265.4Q494.2 265.8 494.9 266.1Q495.6 266.4 496.7 266.4L496.7 266.4Q498.3 266.4 499.3 265.6Q500.3 264.8 500.3 263.1L500.3 263.1L500.3 259.9L500.1 259.9Q499.8 260.6 499.2 261.2Q498.5 261.9 497.5 262.3Q496.5 262.7 495.2 262.7L495.2 262.7Q493.2 262.7 491.6 261.8Q490.0 260.9 489.0 259.0Q488.1 257.1 488.1 254.2L488.1 254.2Q488.1 251.2 489.0 249.2Q490.0 247.2 491.6 246.3Q493.2 245.3 495.1 245.3L495.1 245.3Q496.6 245.3 497.6 245.8Q498.6 246.3 499.2 247.0Q499.8 247.7 500.1 248.4L500.1 248.4L500.3 248.4L500.3 245.5L505.1 245.5L505.1 263.1Q505.1 265.3 504.0 266.8Q502.9 268.3 501.0 269.1Q499.1 269.9 496.6 269.9ZM496.7 259.1L496.7 259.1Q497.9 259.1 498.7 258.5Q499.5 257.9 499.9 256.8Q500.4 255.7 500.4 254.2L500.4 254.2Q500.4 252.6 499.9 251.5Q499.5 250.4 498.7 249.7Q497.9 249.1 496.7 249.1L496.7 249.1Q495.5 249.1 494.7 249.8Q493.9 250.4 493.4 251.5Q493.0 252.7 493.0 254.2L493.0 254.2Q493.0 255.7 493.4 256.8Q493.9 257.9 494.7 258.5Q495.5 259.1 496.7 259.1ZM516.9 263.3L516.9 263.3Q514.3 263.3 512.3 262.2Q510.4 261.1 509.3 259.1Q508.3 257.1 508.3 254.3L508.3 254.3Q508.3 251.6 509.3 249.6Q510.4 247.5 512.3 246.4Q514.2 245.3 516.8 245.3L516.8 245.3Q518.5 245.3 520.0 245.8Q521.5 246.4 522.6 247.5Q523.7 248.6 524.3 250.2Q525.0 251.9 525.0 254.1L525.0 254.1L525.0 255.5L510.2 255.5L510.2 252.5L520.4 252.5Q520.4 251.4 519.9 250.6Q519.5 249.8 518.7 249.3Q517.9 248.9 516.8 248.9L516.8 248.9Q515.7 248.9 514.9 249.4Q514.0 249.9 513.6 250.7Q513.1 251.6 513.1 252.6L513.1 252.6L513.1 255.5Q513.1 256.8 513.6 257.7Q514.0 258.7 514.9 259.2Q515.8 259.7 517.0 259.7L517.0 259.7Q517.8 259.7 518.5 259.5Q519.2 259.2 519.6 258.8Q520.1 258.3 520.4 257.7L520.4 257.7L524.9 258.0Q524.5 259.6 523.5 260.8Q522.4 262.0 520.8 262.6Q519.1 263.3 516.9 263.3Z "/></svg>