<svg width="800" height="400" viewBox="0 0 800 400" xmlns="http://www.w3.org/2000/svg"><mask id="satori_om-id"><rect x="0" y="0" width="800" height="400" fill="#fff"/></mask><rect x="0" y="0" width="800" height="400" fill="#fff"/><clipPath id="satori_cp-id-0"><rect x="363" y="128" width="75" height="65"/></clipPath><mask id="satori_om-id-0"><rect x="363" y="128" width="75" height="65" fill="#fff"/></mask><image x="363" y="128" width="75" height="65" href="data:image/svg+xml;utf8,%3Csvg  fill=%22%23000%22 xmlns=%22http://www.w3.org/2000/svg%22 width=%22NaN%22 height=%22null%22 viewBox=%220 0 75 65%22%3E%3Cpath d=%22M37.59.25l36.95 64H.64l36.95-64z%22%3E%3C/path%3E%3C/svg%3E" preserveAspectRatio="none" clip-path="url(#satori_cp-id-0)" mask="url(#satori_om-id-0)"/><mask id="satori_om-id-0-0"><rect x="363" y="128" width="0" height="65" fill="#fff"/></mask><mask id="satori_om-id-1"><rect x="302" y="233" width="196" height="39" fill="#fff"/></mask><path fill="black" d="M313.9 245.0L308.0 263.0L302.8 263.0L310.8 239.7L317.1 239.7L325.2 263.0L319.9 263.0L314.1 245.0L313.9 245.0ZM307.7 257.6L307.7 253.8L320.2 253.8L320.2 257.6L307.7 257.6ZM332.7 269.5L327.9 269.5L327.9 245.5L332.6 245.5L332.6 248.4L332.9 248.4Q333.2 247.7 333.8 247.0Q334.4 246.3 335.4 245.8Q336.4 245.3 337.8 245.3L337.8 245.3Q339.7 245.3 341.3 246.3Q343.0 247.3 343.9 249.3Q344.9 251.2 344.9 254.2L344.9 254.2Q344.9 257.2 343.9 259.2Q343.0 261.2 341.4 262.2Q339.8 263.2 337.8 263.2L337.8 263.2Q336.4 263.2 335.4 262.8Q334.4 262.3 333.8 261.6Q333.2 260.9 332.9 260.2L332.9 260.2L332.7 260.2L332.7 269.5ZM332.6 254.2L332.6 254.2Q332.6 255.8 333.0 256.9Q333.5 258.1 334.3 258.7Q335.1 259.4 336.3 259.4L336.3 259.4Q337.5 259.4 338.3 258.7Q339.1 258.1 339.5 256.9Q339.9 255.7 339.9 254.2L339.9 254.2Q339.9 252.7 339.5 251.6Q339.1 250.4 338.3 249.8Q337.5 249.1 336.3 249.1L336.3 249.1Q335.1 249.1 334.3 249.7Q333.5 250.4 333.0 251.5Q332.6 252.7 332.6 254.2ZM352.9 269.5L348.1 269.5L348.1 245.5L352.9 245.5L352.9 248.4L353.1 248.4Q353.4 247.7 354.0 247.0Q354.6 246.3 355.6 245.8Q356.6 245.3 358.1 245.3L358.1 245.3Q360.0 245.3 361.6 246.3Q363.2 247.3 364.2 249.3Q365.1 251.2 365.1 254.2L365.1 254.2Q365.1 257.2 364.2 259.2Q363.3 261.2 361.6 262.2Q360.0 263.2 358.0 263.2L358.0 263.2Q356.6 263.2 355.7 262.8Q354.7 262.3 354.0 261.6Q353.4 260.9 353.1 260.2L353.1 260.2L352.9 260.2L352.9 269.5ZM352.8 254.2L352.8 254.2Q352.8 255.8 353.3 256.9Q353.7 258.1 354.5 258.7Q355.3 259.4 356.5 259.4L356.5 259.4Q357.7 259.4 358.5 258.7Q359.3 258.1 359.8 256.9Q360.2 255.7 360.2 254.2L360.2 254.2Q360.2 252.7 359.8 251.6Q359.3 250.4 358.5 249.8Q357.7 249.1 356.5 249.1L356.5 249.1Q355.3 249.1 354.5 249.7Q353.7 250.4 353.3 251.5Q352.8 252.7 352.8 254.2Z M392.3 263.0L375.7 263.0L375.7 259.4L384 251.7Q385.1 250.7 385.8 249.9Q386.5 249.1 386.9 248.3Q387.3 247.5 387.3 246.6L387.3 246.6Q387.3 245.6 386.8 244.8Q386.3 244.1 385.5 243.7Q384.7 243.3 383.7 243.3L383.7 243.3Q382.6 243.3 381.8 243.7Q381.0 244.1 380.6 244.9Q380.2 245.7 380.2 246.8L380.2 246.8L375.5 246.8Q375.5 244.6 376.5 242.9Q377.6 241.2 379.4 240.3Q381.3 239.4 383.7 239.4L383.7 239.4Q386.2 239.4 388.1 240.2Q389.9 241.1 391.0 242.7Q392 244.2 392 246.2L392 246.2Q392 247.6 391.5 248.8Q391.0 250.1 389.6 251.7Q388.3 253.3 385.9 255.4L385.9 255.4L382.5 258.8L382.5 258.9L392.3 258.9L392.3 263.0Z M403.4 239.7L408.4 239.7L408.4 263.0L403.4 263.0L403.4 239.7ZM417.2 263.0L412.3 263.0L412.3 245.5L416.9 245.5L416.9 248.6L417.1 248.6Q417.7 247.0 419.0 246.2Q420.2 245.3 422 245.3L422 245.3Q423.8 245.3 425.1 246.2Q426.3 247.1 426.7 248.6L426.7 248.6L426.9 248.6Q427.5 247.1 428.9 246.2Q430.3 245.3 432.2 245.3L432.2 245.3Q434.6 245.3 436.2 246.8Q437.7 248.4 437.7 251.2L437.7 251.2L437.7 263.0L432.9 263.0L432.9 252.2Q432.9 250.7 432.1 250.0Q431.3 249.3 430.1 249.3L430.1 249.3Q428.8 249.3 428.1 250.1Q427.4 250.9 427.4 252.3L427.4 252.3L427.4 263.0L422.7 263.0L422.7 252.1Q422.7 250.8 421.9 250.0Q421.2 249.3 420 249.3L420 249.3Q419.2 249.3 418.6 249.7Q417.9 250.1 417.5 250.8Q417.2 251.5 417.2 252.5L417.2 252.5L417.2 263.0ZM446.5 263.3L446.5 263.3Q444.8 263.3 443.5 262.7Q442.2 262.1 441.4 261.0Q440.7 259.8 440.7 258.1L440.7 258.1Q440.7 256.6 441.2 255.6Q441.8 254.6 442.7 254.0Q443.6 253.4 444.8 253.1Q445.9 252.8 447.2 252.7L447.2 252.7Q448.8 252.5 449.7 252.4Q450.6 252.3 451.0 252.0Q451.5 251.7 451.5 251.1L451.5 251.1L451.5 251.1Q451.5 250.0 450.8 249.4Q450.1 248.8 448.9 248.8L448.9 248.8Q447.6 248.8 446.8 249.4Q446.0 250.0 445.8 250.8L445.8 250.8L441.3 250.5Q441.6 248.9 442.6 247.7Q443.6 246.5 445.2 245.9Q446.8 245.3 448.9 245.3L448.9 245.3Q450.4 245.3 451.7 245.6Q453.0 246.0 454.1 246.7Q455.1 247.4 455.7 248.5Q456.3 249.6 456.3 251.2L456.3 251.2L456.3 263.0L451.7 263.0L451.7 260.5L451.6 260.5Q451.2 261.3 450.5 262.0Q449.8 262.6 448.8 262.9Q447.8 263.3 446.5 263.3ZM447.9 259.9L447.9 259.9Q448.9 259.9 449.8 259.5Q450.6 259.1 451.0 258.4Q451.5 257.6 451.5 256.7L451.5 256.7L451.5 254.9Q451.3 255.0 450.9 255.1Q450.5 255.2 450 255.3Q449.5 255.4 449.0 255.5Q448.5 255.6 448.1 255.6L448.1 255.6Q447.3 255.8 446.6 256.0Q446.0 256.3 445.7 256.8Q445.3 257.2 445.3 257.9L445.3 257.9Q445.3 258.9 446.0 259.4Q446.8 259.9 447.9 259.9ZM467.9 269.9L467.9 269.9Q465.6 269.9 463.9 269.2Q462.2 268.6 461.2 267.5Q460.3 266.4 460.0 265.0L460.0 265.0L464.4 264.4Q464.6 264.9 465.1 265.4Q465.5 265.8 466.3 266.1Q467.0 266.4 468.0 266.4L468.0 266.4Q469.6 266.4 470.7 265.6Q471.7 264.8 471.7 263.1L471.7 263.1L471.7 259.9L471.5 259.9Q471.2 260.6 470.5 261.2Q469.9 261.9 468.9 262.3Q467.9 262.7 466.5 262.7L466.5 262.7Q464.5 262.7 462.9 261.8Q461.3 260.9 460.4 259.0Q459.4 257.1 459.4 254.2L459.4 254.2Q459.4 251.2 460.4 249.2Q461.4 247.2 463.0 246.3Q464.6 245.3 466.5 245.3L466.5 245.3Q468.0 245.3 468.9 245.8Q469.9 246.3 470.5 247.0Q471.1 247.7 471.5 248.4L471.5 248.4L471.7 248.4L471.7 245.5L476.5 245.5L476.5 263.1Q476.5 265.3 475.4 266.8Q474.3 268.3 472.4 269.1Q470.4 269.9 467.9 269.9ZM468.0 259.1L468.0 259.1Q469.2 259.1 470.0 258.5Q470.8 257.9 471.3 256.8Q471.7 255.7 471.7 254.2L471.7 254.2Q471.7 252.6 471.3 251.5Q470.8 250.4 470.0 249.7Q469.2 249.1 468.0 249.1L468.0 249.1Q466.8 249.1 466.0 249.8Q465.2 250.4 464.8 251.5Q464.4 252.7 464.4 254.2L464.4 254.2Q464.4 255.7 464.8 256.8Q465.2 257.9 466.0 258.5Q466.8 259.1 468.0 259.1ZM488.3 263.3L488.3 263.3Q485.6 263.3 483.7 262.2Q481.7 261.1 480.7 259.1Q479.6 257.1 479.6 254.3L479.6 254.3Q479.6 251.6 480.7 249.6Q481.7 247.5 483.6 246.4Q485.5 245.3 488.1 245.3L488.1 245.3Q489.8 245.3 491.3 245.8Q492.8 246.4 493.9 247.5Q495.0 248.6 495.7 250.2Q496.3 251.9 496.3 254.1L496.3 254.1L496.3 255.5L481.6 255.5L481.6 252.5L491.7 252.5Q491.7 251.4 491.3 250.6Q490.8 249.8 490.0 249.3Q489.2 248.9 488.2 248.9L488.2 248.9Q487.1 248.9 486.2 249.4Q485.4 249.9 484.9 250.7Q484.4 251.6 484.4 252.6L484.4 252.6L484.4 255.5Q484.4 256.8 484.9 257.7Q485.4 258.7 486.3 259.2Q487.1 259.7 488.4 259.7L488.4 259.7Q489.2 259.7 489.8 259.5Q490.5 259.2 491.0 258.8Q491.5 258.3 491.7 257.7L491.7 257.7L496.2 258.0Q495.9 259.6 494.8 260.8Q493.8 262.0 492.1 262.6Q490.4 263.3 488.3 263.3Z "/></svg>